# xmcd
#
# Track frame offsets:
# 150
# 12364
# 35134
# 59466
# 77975
# 104272
# 124058
# 144185
# 165235
# 185204
# 209510
# 233397
# 254036
# 283366
# 314063
#
# Disc length: 4532 seconds
#
#
# Revision: 0
# Processed by: cddbd v1.5.2PL0 Copyright (c) Steve Scherf et al.
# Submitted via: FreeRIP 2.951 
#
DISCID=e211b20f
DTITLE=Los Aldeanos - El atropello
DYEAR=2011
DGENRE=Acid Punk
TTITLE0=Intro
TTITLE1=Los Aldeanos
TTITLE2=niñito cubano
TTITLE3=el atropello
TTITLE4=mangos bajitos
TTITLE5=chini socio
TTITLE6=la naranja se pico
TTITLE7=veneno
TTITLE8=cochikera
TTITLE9=el rap es guerra
TTITLE10=sin permiso
TTITLE11=odio a primera vista
TTITLE12=pasa el borrador
TTITLE13=ao
TTITLE14=fue un placer
EXTD=
EXTT0=
EXTT1=
EXTT2=
EXTT3=
EXTT4=
EXTT5=
EXTT6=
EXTT7=
EXTT8=
EXTT9=
EXTT10=
EXTT11=
EXTT12=
EXTT13=
EXTT14=
PLAYORDER=
